<svg xmlns="http://www.w3.org/2000/svg" xmlns:xlink="http://www.w3.org/1999/xlink" version="1.1" viewBox="0 0 100 100">
  <defs>
    <mask id="mask">
      <path fill="#FFFFFF" stroke="none" d=" M 82.2 82.15 Q 95.5 68.85 95.5 49.95 95.5 31.1 82.2 17.8 68.85 4.5 50 4.5 31.15 4.5 17.8 17.8 4.5 31.1 4.5 49.95 4.5 68.85 17.8 82.15 31.15 95.45 50 95.45 68.85 95.45 82.2 82.15 Z"></path>
    </mask>
  </defs>
  <g>
    <path fill="rgba(200,200,200,.75)" stroke="none" d=" M 90.75 23.05 Q 89.5 23.05 88.85 24.15 88.15 25.25 88.85 26.35 97.25 40.2 95.15 56.15 93.05 71.65 81.75 82.6 70.35 93.7 54.9 95.25 32.95 97.55 17.6 81.85 2.2 66.2 4.85 44.2 6.6 30.2 16.15 19.7 25.65 9.1 39.25 5.8 50.55 3 61.7 5.95 62.85 6.3 63.7 5.65 64.6 5 64.6 3.85 64.6 2.25 62.95 1.7 52.55 -1.1 41.6 0.65 25.55 3.3 14.4 14.85 3.1 26.25 0.65 42.4 -2.95 66.9 14 84.5 30.85 102.1 55.2 99.7 72.6 97.9 85.2 85.4 97.95 72.8 99.7 55.35 101.45 38.55 92.75 24.05 92.05 23.05 90.75 23.05 Z" stroke-width="3"></path>
  </g>
  <g mask="url(#mask)">
    <g transform="translate(50 50) translate(0 0) scale(0.735) translate(-50 -50)">
      <g transform="scale(3.3112577762339344) translate(0.10000485181808472 0.10000000149011612)" fill="rgba(200,200,200,.75)">
        <path d="M29.9 21.8l-1-2.9c-1.2-3.4-4.4-5.5-8.3-5.2L16 14l.3-4.6c.3-3.9-1.8-7.1-5.2-8.3L8.2.1c-.5-.2-1 .1-1.2.6s.1 1.1.6 1.3l1.6.6-6.7 6.6-.6-1.6c-.1-.5-.7-.8-1.2-.6s-.8.7-.6 1.3l1 2.9c1.2 3.4 4.4 5.5 8.3 5.2l4.6-.3-.3 4.6c-.3 3.9 1.8 7.1 5.2 8.3l2.9 1c.1 0 .2.1.3.1.4 0 .8-.3.9-.7.2-.5-.1-1.1-.6-1.3l-1.6-.6 6.7-6.7.6 1.6c.1.4.5.7.9.7.1 0 .2 0 .3-.1.5-.2.8-.7.6-1.2zm-4.4-4.7l-8.4 8.4c-.5-.5-.8-1.1-1.1-1.7l7.8-7.8c.6.3 1.2.7 1.7 1.1zM2.9 10.5v-.2l7.4-7.4.2.1c.6.2 1.1.5 1.6.9l-8.3 8.3c-.4-.5-.7-1.1-.9-1.7zm1.6 2.4l8.4-8.4c.4.5.8 1 1.1 1.7L6.2 14c-.7-.3-1.2-.7-1.7-1.1zm4.7 1.5c-.7 0-1.3 0-1.9-.1l7-7c.1.6.2 1.2.1 1.9l-.3 4.8-4.9.4zm11.6 1.2c.7 0 1.3 0 1.9.1l-7 7c-.1-.6-.2-1.2-.1-1.9l.3-4.8 4.9-.4zm-1.1 11.5l-.2-.1c-.6-.2-1.1-.5-1.6-.9l8.3-8.3c.4.5.7 1 .9 1.6l.1.2-7.5 7.5z" stroke-width="5"></path>
      </g>
    </g>
  </g>
</svg>
