<svg xmlns="http://www.w3.org/2000/svg" xmlns:xlink="http://www.w3.org/1999/xlink" version="1.1" width="128" height="128" viewBox="7 7 86 86">
<circle cx="50" cy="50" r="40" stroke="#000000" fill="none" stroke-width="5" stroke-linecap="round">
<animate attributeName="stroke-dashoffset" dur="4s" repeatCount="indefinite" values="0;502"></animate>
 <animate attributeName="stroke-dasharray" dur="4s" repeatCount="indefinite" values="150.6 100.4;1 250;150.6 100.4"></animate>

  </circle>  <defs>
    <mask id="mask">
      <path fill="#FFFFFF" stroke="none" d=" M 82.2 82.15 Q 95.5 68.85 95.5 49.95 95.5 31.1 82.2 17.8 68.85 4.5 50 4.5 31.15 4.5 17.8 17.8 4.5 31.1 4.5 49.95 4.5 68.85 17.8 82.15 31.15 95.45 50 95.45 68.85 95.45 82.2 82.15 Z"></path>
    </mask>
    <g transform="scale(3.311258) translate(0.10000485181808472 0.10000000149011612)" id="picture">
      <path d="M29.9 21.8l-1-2.9c-1.2-3.4-4.4-5.5-8.3-5.2L16 14l.3-4.6c.3-3.9-1.8-7.1-5.2-8.3L8.2.1c-.5-.2-1 .1-1.2.6s.1 1.1.6 1.3l1.6.6-6.7 6.6-.6-1.6c-.1-.5-.7-.8-1.2-.6s-.8.7-.6 1.3l1 2.9c1.2 3.4 4.4 5.5 8.3 5.2l4.6-.3-.3 4.6c-.3 3.9 1.8 7.1 5.2 8.3l2.9 1c.1 0 .2.1.3.1.4 0 .8-.3.9-.7.2-.5-.1-1.1-.6-1.3l-1.6-.6 6.7-6.7.6 1.6c.1.4.5.7.9.7.1 0 .2 0 .3-.1.5-.2.8-.7.6-1.2zm-4.4-4.7l-8.4 8.4c-.5-.5-.8-1.1-1.1-1.7l7.8-7.8c.6.3 1.2.7 1.7 1.1zM2.9 10.5v-.2l7.4-7.4.2.1c.6.2 1.1.5 1.6.9l-8.3 8.3c-.4-.5-.7-1.1-.9-1.7zm1.6 2.4l8.4-8.4c.4.5.8 1 1.1 1.7L6.2 14c-.7-.3-1.2-.7-1.7-1.1zm4.7 1.5c-.7 0-1.3 0-1.9-.1l7-7c.1.6.2 1.2.1 1.9l-.3 4.8-4.9.4zm11.6 1.2c.7 0 1.3 0 1.9.1l-7 7c-.1-.6-.2-1.2-.1-1.9l.3-4.8 4.9-.4zm-1.1 11.5l-.2-.1c-.6-.2-1.1-.5-1.6-.9l8.3-8.3c.4.5.7 1 .9 1.6l.1.2-7.5 7.5z"></path>
    </g>
  </defs>
  <g mask="url(#mask)">
    <g transform="translate(50 50) scale(0.63) translate(-50 -50)">
      <use xlink:href="#picture" fill="#000000"></use>
    </g>
  </g>
</svg>
